<svg xmlns="http://www.w3.org/2000/svg" xmlns:xlink="http://www.w3.org/1999/xlink" viewBox="0 0 721.5 255.918" 
preserveAspectRatio="none"
>
  <defs>
    <style>
      .cls-1 {
        fill: #f8c872;
      }

      .cls-1, .cls-2 {
        stroke: rgba(0,0,0,0);
        stroke-miterlimit: 10;
      }

      .cls-2 {
        fill: url(#linear-gradient);
      }
    </style>
    <linearGradient id="linear-gradient" x1="0.537" x2="0.555" y2="1" gradientUnits="objectBoundingBox">
      <stop offset="0" stop-color="#e6772b"/>
      <stop offset="1" stop-color="#f9b233"/>
    </linearGradient>
  </defs>
  <g id="Nube_biblioteca" data-name="Nube biblioteca" transform="translate(0.5 0.5)">
    <path id="Sustracci贸n_49" data-name="Sustracci贸n 49" class="cls-1" d="M165.273,254.426h-.034a377.776,377.776,0,0,1-87.512-10.171A344.956,344.956,0,0,1,0,215.675V0H720.5V112.6a276.645,276.645,0,0,1-24.872,23.419,305.007,305.007,0,0,1-45.043,30.973,336.909,336.909,0,0,1-51.924,23.675,362.943,362.943,0,0,1-57.581,15.362,383.715,383.715,0,0,1-62.021,6.033c-2.109.034-4.23.051-6.3.051a383.21,383.21,0,0,1-55.939-4.091,366.183,366.183,0,0,1-52.621-11.785,321.562,321.562,0,0,1-41.836,23.788,346.955,346.955,0,0,1-46.572,18.054,375.109,375.109,0,0,1-104.232,16.294C169.414,254.409,167.359,254.426,165.273,254.426Z" transform="translate(-0.001 0)"/>
    <path id="Sustracci贸n_48" data-name="Sustracci贸n 48" class="cls-2" d="M136.837,254.918H136.8a401.716,401.716,0,0,1-71.03-6.3A376.46,376.46,0,0,1,0,230.558V0H720V70.638c-.333.4-.665.794-.988,1.177a282.32,282.32,0,0,1-43.4,41.236,326.4,326.4,0,0,1-53.743,33.439,366.512,366.512,0,0,1-62.542,24.11,401.15,401.15,0,0,1-69.794,13.245c-13.63,1.365-27.446,2.057-41.064,2.057a400.3,400.3,0,0,1-79.352-7.892,317.375,317.375,0,0,1-40.1,27.411A349.822,349.822,0,0,1,283.3,227.515a390.424,390.424,0,0,1-105.375,25.344C164.28,254.225,150.458,254.918,136.837,254.918Z" transform="translate(0.5 0)"/>
  </g>
</svg>
