<svg id="Buscador" xmlns="http://www.w3.org/2000/svg" width="96" height="96" viewBox="0 0 96 96">
  <defs>
    <style>
      .cls-1 {
        fill: #6f65bb;
      }

      .cls-2 {
        fill: #fff;
      }

      .cls-3 {
        fill: none;
      }
    </style>
  </defs>
  <circle id="Elipse_139" data-name="Elipse 139" class="cls-1" cx="48" cy="48" r="48"/>
  <g id="Lupita" transform="translate(18 18)">
    <path id="Trazado_91" data-name="Trazado 91" class="cls-2" d="M35.742,31.511a1.864,1.864,0,0,0-1.321-.549h-1.45l-.788-.76a18.355,18.355,0,1,0-1.971,1.97l.76.788v1.452a1.862,1.862,0,0,0,.546,1.318L42.829,47.036a3.075,3.075,0,0,0,3.706.575,2.973,2.973,0,0,0,.6-4.66Zm-16.294-.6a12.667,12.667,0,1,1,11.474-11.47A12.661,12.661,0,0,1,19.449,30.912Z" transform="translate(6 6)"/>
    <rect id="Rectángulo_243" data-name="Rectángulo 243" class="cls-3" width="60" height="60"/>
  </g>
</svg>
