<svg xmlns="http://www.w3.org/2000/svg" width="24" height="24" viewBox="0 0 24 24">
  <defs>
    <style>
      .cls-1 {
        fill: #6f65bb;
      }
    </style>
  </defs>
  <path id="Trazado_292" data-name="Trazado 292" class="cls-1" d="M17.871,15.755a.932.932,0,0,0-.66-.274h-.725l-.394-.38a9.177,9.177,0,1,0-.985.985l.38.394v.726a.931.931,0,0,0,.273.659l5.655,5.653a1.537,1.537,0,0,0,1.853.288,1.487,1.487,0,0,0,.3-2.33Zm-8.147-.3a6.334,6.334,0,1,1,5.737-5.735A6.33,6.33,0,0,1,9.724,15.456Z" transform="translate(0 0)"/>
</svg>
