<svg id="Grupo_42" data-name="Grupo 42" xmlns="http://www.w3.org/2000/svg" width="33.629" height="31.897" viewBox="0 0 33.629 31.897">
  <defs>
    <style>
      .cls-1 {
        fill: #a7a5a1;
      }
    </style>
  </defs>
  <path id="Trazado_20" data-name="Trazado 20" class="cls-1" d="M2778.1,1334.067c.094-.542.186-1.077.28-1.612q.169-.966.336-1.934c.1-.594.2-1.186.309-1.778q.168-.981.34-1.961.211-1.215.423-2.427c.1-.573.2-1.149.3-1.722a.217.217,0,0,0-.077-.213q-.838-.81-1.672-1.624-1.195-1.157-2.386-2.318-1.384-1.344-2.766-2.686c-.439-.424-.877-.85-1.318-1.273a.252.252,0,0,1-.09-.2c0-.054.017-.079.075-.086.237-.032.472-.071.707-.1l1.424-.2q.606-.085,1.212-.173l1.439-.208,1.413-.2,1.41-.2q.7-.1,1.4-.2l1.411-.206c.313-.045.623-.092.935-.129a.227.227,0,0,0,.19-.143q.745-1.525,1.494-3.048.87-1.771,1.739-3.541t1.751-3.567c.018-.039.023-.1.072-.106a.631.631,0,0,1,.186,0c.047.005.055.055.073.091.137.279.274.555.411.833q.89,1.814,1.781,3.626l2.778,5.657a.728.728,0,0,1,.035.072.184.184,0,0,0,.163.119c.3.038.6.085.893.127l1.226.176q.6.085,1.211.174l1.4.2,1.238.18,1.412.2c.4.057.808.114,1.212.173q.7.1,1.4.2l1.224.177c.076.01.151.019.227.031.035,0,.075,0,.089.047s-.011.066-.04.091c-.157.153-.315.308-.473.461q-1.537,1.495-3.074,2.986-1.371,1.333-2.746,2.665-.981.951-1.966,1.9a.264.264,0,0,0-.093.27c.193,1.077.38,2.155.567,3.234q.314,1.829.63,3.66c.173,1,.351,2.006.525,3.009.082.473.164.944.246,1.417.016.094-.017.126-.111.1a.561.561,0,0,1-.112-.047l-5.463-2.887q-2.3-1.218-4.605-2.437a.269.269,0,0,0-.287,0l-5.666,3-4.355,2.3A.33.33,0,0,1,2778.1,1334.067Z" transform="translate(-2771.779 -1302.196)"/>
</svg>
