<svg id="Grupo_40" data-name="Grupo 40" xmlns="http://www.w3.org/2000/svg" width="32.401" height="30.731" viewBox="0 0 32.401 30.731">
  <defs>
    <style>
      .cls-1 {
        fill: #f9b233;
      }
    </style>
  </defs>
  <path id="Trazado_18" data-name="Trazado 18" class="cls-1" d="M2737.771,1332.9c.09-.522.18-1.038.27-1.553.106-.62.217-1.243.323-1.863.1-.572.2-1.142.3-1.713q.165-.946.33-1.889.2-1.171.406-2.339c.1-.552.192-1.107.292-1.66a.207.207,0,0,0-.073-.205q-.807-.781-1.613-1.564-1.149-1.115-2.3-2.233-1.33-1.294-2.663-2.587c-.423-.409-.845-.819-1.27-1.227a.242.242,0,0,1-.087-.192c0-.052.016-.076.073-.082.226-.031.452-.068.68-.1l1.372-.2q.584-.082,1.168-.166l1.385-.2,1.361-.192,1.361-.2q.674-.095,1.348-.191l1.359-.2c.3-.044.6-.089.9-.124a.215.215,0,0,0,.183-.137q.719-1.469,1.441-2.936.836-1.707,1.675-3.412t1.686-3.437c.02-.037.025-.094.071-.1a.6.6,0,0,1,.179,0c.046,0,.052.053.07.087.132.268.265.535.4.8q.858,1.748,1.716,3.494l2.676,5.451c.012.023.024.045.034.07a.177.177,0,0,0,.157.115c.286.037.572.082.859.123l1.18.17q.584.082,1.168.168l1.348.192,1.192.173,1.361.2c.389.055.779.11,1.168.166q.674.094,1.348.192l1.18.171c.073.01.145.018.218.029.032,0,.072,0,.086.045s-.012.063-.039.087c-.154.147-.3.3-.456.444q-1.481,1.44-2.962,2.877-1.321,1.285-2.646,2.568-.945.917-1.894,1.833a.254.254,0,0,0-.088.26q.278,1.556.544,3.116.305,1.762.607,3.526.253,1.45.508,2.9l.237,1.365c.015.091-.018.121-.106.1a.523.523,0,0,1-.108-.045q-2.632-1.392-5.263-2.781-2.221-1.173-4.437-2.348a.258.258,0,0,0-.276,0q-2.729,1.445-5.459,2.886l-4.2,2.217A.312.312,0,0,1,2737.771,1332.9Z" transform="translate(-2731.679 -1302.196)"/>
</svg>
