<svg id="Grupo_128" data-name="Grupo 128" xmlns="http://www.w3.org/2000/svg" width="40" height="40" viewBox="0 0 40 40">
  <defs>
    <style>
      .cls-1, .cls-3 {
        fill: none;
      }

      .cls-1 {
        stroke: #3e3b8a;
        stroke-linejoin: round;
        stroke-width: 2px;
      }

      .cls-2 {
        fill: #3e3b8a;
      }
    </style>
  </defs>
  <g id="Grupo_126" data-name="Grupo 126" transform="translate(2.473 2.473)">
    <path id="Trazado_79" data-name="Trazado 79" class="cls-1" d="M15.167,15.167H50.222V50.222H15.167Z" transform="translate(-15.167 -15.167)"/>
    <path id="Trazado_80" data-name="Trazado 80" class="cls-2" d="M36.537,54.211H56.5a1.411,1.411,0,1,0,0-2.823H36.537a1.411,1.411,0,1,0,0,2.823Zm0,5.646H56.5a1.412,1.412,0,1,0,0-2.823H36.537a1.412,1.412,0,1,0,0,2.823Zm0-11.291H56.5a1.411,1.411,0,1,0,0-2.823H36.537a1.411,1.411,0,1,0,0,2.823Zm-1.426-7.057a1.423,1.423,0,0,0,1.426,1.411H56.5a1.412,1.412,0,1,0,0-2.823H36.537A1.423,1.423,0,0,0,35.111,41.509Z" transform="translate(-28.993 -32.45)"/>
  </g>
  <g id="Grupo_127" data-name="Grupo 127">
    <path id="Trazado_81" data-name="Trazado 81" class="cls-3" d="M42.067,47.106H12.145a5.045,5.045,0,0,1-5.039-5.039V12.145a5.045,5.045,0,0,1,5.039-5.039H42.067a5.045,5.045,0,0,1,5.039,5.039V42.067A5.045,5.045,0,0,1,42.067,47.106ZM12.145,10.052a2.1,2.1,0,0,0-2.093,2.093V42.067a2.1,2.1,0,0,0,2.093,2.093H42.067a2.1,2.1,0,0,0,2.093-2.093V12.145a2.1,2.1,0,0,0-2.093-2.093Z" transform="translate(-7.106 -7.106)"/>
  </g>
</svg>
