<svg id="Ajustes_lector" data-name="Ajustes lector" xmlns="http://www.w3.org/2000/svg" width="96" height="96" viewBox="0 0 96 96">
  <defs>
    <style>
      .cls-1 {
        fill: #6f65bb;
      }

      .cls-2 {
        fill: #fff;
      }
    </style>
  </defs>
  <g id="Grupo_118" data-name="Grupo 118" transform="translate(-50 -50)">
    <circle id="Elipse_19" data-name="Elipse 19" class="cls-1" cx="48" cy="48" r="48" transform="translate(50 50)"/>
  </g>
  <path id="Trazado_62" data-name="Trazado 62" class="cls-2" d="M61.359,41.516l-3.614-2.664a2.173,2.173,0,0,1-.887-1.827c.006-.174.008-.348.008-.525s0-.365-.008-.546a2.17,2.17,0,0,1,.9-1.8l3.622-2.67a2.37,2.37,0,0,0,.642-3.12l-4.616-7.752A2.471,2.471,0,0,0,54.324,19.6l-4.2,1.728a2.316,2.316,0,0,1-2.074-.166q-.443-.267-.9-.509A2.2,2.2,0,0,1,45.981,19l-.567-4.393A2.452,2.452,0,0,0,42.97,12.5H33.763a2.459,2.459,0,0,0-2.468,2.112L30.728,19a2.2,2.2,0,0,1-1.17,1.652q-.457.242-.9.509a2.316,2.316,0,0,1-2.074.166l-4.2-1.728A2.47,2.47,0,0,0,19.3,20.612l-4.616,7.776a2.376,2.376,0,0,0,.642,3.12l3.636,2.68a2.135,2.135,0,0,1,.889,1.773q-.008.266-.008.539c0,.184,0,.365.008.546a2.17,2.17,0,0,1-.9,1.8l-3.622,2.67a2.371,2.371,0,0,0-.642,3.12L19.3,52.388A2.47,2.47,0,0,0,22.384,53.4l4.2-1.728a2.316,2.316,0,0,1,2.074.166q.443.267.9.509A2.2,2.2,0,0,1,30.728,54l.567,4.393A2.452,2.452,0,0,0,33.738,60.5h9.207a2.452,2.452,0,0,0,2.443-2.112L45.956,54a2.2,2.2,0,0,1,1.17-1.652q.457-.242.9-.509a2.315,2.315,0,0,1,2.074-.166L54.3,53.4a2.47,2.47,0,0,0,3.085-1.008L62,44.636A2.376,2.376,0,0,0,61.359,41.516Zm-23,7.425A12.446,12.446,0,1,1,51.15,36.5,12.622,12.622,0,0,1,38.354,48.942Z" transform="translate(9.646 11.5)"/>
</svg>
