<svg id="Grupo_124" data-name="Grupo 124" xmlns="http://www.w3.org/2000/svg" width="38.228" height="30.722" viewBox="0 0 38.228 30.722">
  <defs>
    <style>
      .cls-1 {
        fill: #3e3b8a;
      }
    </style>
  </defs>
  <g id="Grupo_123" data-name="Grupo 123" transform="translate(0)">
    <g id="Grupo_122" data-name="Grupo 122">
      <g id="Grupo_121" data-name="Grupo 121">
        <path id="Trazado_68" data-name="Trazado 68" class="cls-1" d="M23.583,63.605H19.765a1.109,1.109,0,0,0-1.109,1.109V76.833a1.109,1.109,0,0,1-1.109,1.109H13.729a1.109,1.109,0,0,1-1.109-1.109V64.714a1.109,1.109,0,0,0-1.109-1.109H7.693A1.109,1.109,0,0,1,6.584,62.5V58.57a1.109,1.109,0,0,1,1.109-1.109h15.89a1.109,1.109,0,0,1,1.109,1.109V62.5A1.109,1.109,0,0,1,23.583,63.605Z" transform="translate(13.536 -47.22)"/>
        <path id="Trazado_69" data-name="Trazado 69" class="cls-1" d="M76.1,21.791v3.926a1.109,1.109,0,0,1-1.109,1.109H67.146a1.109,1.109,0,0,0-1.109,1.109V50.295A1.109,1.109,0,0,1,64.928,51.4H61.11A1.109,1.109,0,0,1,60,50.295V27.935a1.109,1.109,0,0,0-1.109-1.109H51.05a1.109,1.109,0,0,1-1.109-1.109V21.791a1.109,1.109,0,0,1,1.109-1.109H74.988A1.109,1.109,0,0,1,76.1,21.791Z" transform="translate(-49.941 -20.682)"/>
      </g>
    </g>
  </g>
</svg>
