<svg xmlns="http://www.w3.org/2000/svg" width="36" height="36" viewBox="0 0 36 36">
  <defs>
    <style>
      .cls-1 {
        fill: none;
      }

      .cls-2 {
        fill: #0e0e0e;
      }
    </style>
  </defs>
  <g id="Grupo_271" data-name="Grupo 271" transform="translate(73.979 10.645)">
    <g id="Grupo_175" data-name="Grupo 175" transform="translate(-73.979 -10.645)">
      <path id="Trazado_101" data-name="Trazado 101" class="cls-1" d="M0,0H36V36H0Z"/>
    </g>
    <g id="Grupo_177" data-name="Grupo 177" transform="translate(-65.679 -3.645)">
      <g id="Grupo_176" data-name="Grupo 176" transform="translate(-1.299 0)">
        <path id="Trazado_102" data-name="Trazado 102" class="cls-2" d="M21.493,22.467A1.208,1.208,0,0,1,22.742,21.3h6.98a1.331,1.331,0,0,0,1.371-1.277h0a1.331,1.331,0,0,0-1.371-1.277H21.493A2.661,2.661,0,0,0,18.75,21.3V39.183a2.661,2.661,0,0,0,2.743,2.554h8.229a1.331,1.331,0,0,0,1.371-1.277h0a1.331,1.331,0,0,0-1.371-1.277h-6.98a1.208,1.208,0,0,1-1.249-1.163Z" transform="translate(-18.75 -18.75)"/>
        <path id="Trazado_103" data-name="Trazado 103" class="cls-2" d="M72.228,58.462,68.4,54.636a.687.687,0,0,0-1.179.48v1.206a1.248,1.248,0,0,1-1.249,1.249H57.621a1.375,1.375,0,0,0-1.371,1.371h0a1.375,1.375,0,0,0,1.371,1.371h8.352a1.248,1.248,0,0,1,1.249,1.249v1.206a.679.679,0,0,0,1.166.48l3.826-3.826A.675.675,0,0,0,72.228,58.462Z" transform="translate(-49.701 -47.449)"/>
      </g>
    </g>
  </g>
</svg>
