<svg id="Componente_83_1" data-name="Componente 83 – 1" xmlns="http://www.w3.org/2000/svg" width="160" height="160" viewBox="0 0 160 160">
  <defs>
    <style>
      .cls-1 {
        fill: #3e3b8a;
      }

      .cls-2 {
        fill: #fff;
      }
    </style>
  </defs>
  <rect id="Rectángulo_307" data-name="Rectángulo 307" class="cls-1" width="160" height="160" rx="80"/>
  <path id="Trazado_245" data-name="Trazado 245" class="cls-2" d="M822.9,567.09a117.06,117.06,0,0,1-22.6-2.566,1.566,1.566,0,0,0-1.826,2.039,56.482,56.482,0,0,0,6.737,13.655,1.6,1.6,0,0,0,.67.548,51.377,51.377,0,0,0,16.892,4.224,1.557,1.557,0,0,0,1.657-1.56V568.638A1.551,1.551,0,0,0,822.9,567.09Z" transform="translate(-746.456 -452.998)"/>
  <path id="Trazado_246" data-name="Trazado 246" class="cls-2" d="M825.284,585.049a51.354,51.354,0,0,0,17.049-4.437,1.622,1.622,0,0,0,.661-.551,57.368,57.368,0,0,0,6.737-13.86,1.564,1.564,0,0,0-1.834-2.03,128.027,128.027,0,0,1-22.784,2.929,1.55,1.55,0,0,0-1.5,1.548V583.49A1.556,1.556,0,0,0,825.284,585.049Z" transform="translate(-740.777 -453.079)"/>
  <path id="Trazado_247" data-name="Trazado 247" class="cls-2" d="M842.1,501.513a51.4,51.4,0,0,0-16.815-4.335,1.556,1.556,0,0,0-1.667,1.559V515.93a1.551,1.551,0,0,0,1.5,1.548,127.331,127.331,0,0,1,23.959,3.194,1.559,1.559,0,0,0,1.853-1.983,55.262,55.262,0,0,0-8.193-16.67A1.618,1.618,0,0,0,842.1,501.513Z" transform="translate(-740.778 -468.153)"/>
  <path id="Trazado_248" data-name="Trazado 248" class="cls-2" d="M795.6,541.664c8.61.007,18.41.007,28.248,0a1.557,1.557,0,0,0,1.558-1.556V519.287a1.565,1.565,0,0,0-1.591-1.566,108.146,108.146,0,0,0-26.805,3.771A1.572,1.572,0,0,0,795.9,522.7a103.594,103.594,0,0,0-1.85,17.369A1.557,1.557,0,0,0,795.6,541.664Z" transform="translate(-747.433 -463.528)"/>
  <path id="Trazado_249" data-name="Trazado 249" class="cls-2" d="M850.412,563.578c-.669,2.38-1.418,4.679-2.242,6.879a1.558,1.558,0,0,0,2.525,1.685,51.939,51.939,0,0,0,7.79-9.165,1.559,1.559,0,0,0-1.862-2.317q-2.506,1-5.2,1.864A1.55,1.55,0,0,0,850.412,563.578Z" transform="translate(-735.267 -453.89)"/>
  <path id="Trazado_250" data-name="Trazado 250" class="cls-2" d="M853.505,542.708a117.647,117.647,0,0,1-1.809,16.1,1.566,1.566,0,0,0,2.107,1.753,58.547,58.547,0,0,0,9.127-4.441,1.581,1.581,0,0,0,.676-.847,51.482,51.482,0,0,0,2.549-12.4A1.549,1.549,0,0,0,864.6,541.2l-9.548.014A1.552,1.552,0,0,0,853.505,542.708Z" transform="translate(-734.451 -458.239)"/>
  <path id="Trazado_261" data-name="Trazado 261" class="cls-2" d="M864.323,542.708a117.666,117.666,0,0,0,1.809,16.1,1.566,1.566,0,0,1-2.107,1.753,58.548,58.548,0,0,1-9.127-4.441,1.58,1.58,0,0,1-.676-.847,51.485,51.485,0,0,1-2.548-12.4,1.549,1.549,0,0,1,1.554-1.661l9.548.014A1.553,1.553,0,0,1,864.323,542.708Z" transform="translate(-822.666 -459.149)"/>
  <path id="Trazado_251" data-name="Trazado 251" class="cls-2" d="M852.406,520.672c2.084.7,4.089,1.463,6,2.28a1.558,1.558,0,0,0,1.96-2.206,51.858,51.858,0,0,0-9.276-11.928,1.558,1.558,0,0,0-2.523,1.7,78.712,78.712,0,0,1,2.831,9.065A1.545,1.545,0,0,0,852.406,520.672Z" transform="translate(-735.178 -465.616)"/>
  <path id="Trazado_252" data-name="Trazado 252" class="cls-2" d="M824.648,498.72a1.556,1.556,0,0,0-1.657-1.559,51.4,51.4,0,0,0-17.316,4.413l.124.1a54.514,54.514,0,0,0-8.319,16.57,1.569,1.569,0,0,0,1.859,2,115.9,115.9,0,0,1,23.781-2.852,1.551,1.551,0,0,0,1.528-1.549Z" transform="translate(-746.677 -468.157)"/>
  <path id="Trazado_253" data-name="Trazado 253" class="cls-2" d="M855.008,540.331l9.455-.012a1.554,1.554,0,0,0,1.551-1.662,51.726,51.726,0,0,0-1.641-9.448,1.582,1.582,0,0,0-.669-.917,55.688,55.688,0,0,0-9.242-4.72,1.566,1.566,0,0,0-2.137,1.689,110.331,110.331,0,0,1,1.131,13.55A1.551,1.551,0,0,0,855.008,540.331Z" transform="translate(-734.306 -462.235)"/>
  <path id="Trazado_262" data-name="Trazado 262" class="cls-2" d="M863.318,540.331l-9.455-.012a1.554,1.554,0,0,1-1.551-1.662,51.716,51.716,0,0,1,1.641-9.448,1.581,1.581,0,0,1,.668-.917,55.692,55.692,0,0,1,9.242-4.72A1.566,1.566,0,0,1,866,525.26a110.343,110.343,0,0,0-1.131,13.55A1.551,1.551,0,0,1,863.318,540.331Z" transform="translate(-823.308 -463.146)"/>
  <path id="Trazado_256" data-name="Trazado 256" class="cls-2" d="M825.389,565.813V542.8a1.557,1.557,0,0,0-1.559-1.556l-11.6,0c-5.778,0-11.37,0-16.542-.007a1.557,1.557,0,0,0-1.555,1.627,110.714,110.714,0,0,0,2.679,19.834,1.574,1.574,0,0,0,1.12,1.161,109.176,109.176,0,0,0,25.871,3.513A1.564,1.564,0,0,0,825.389,565.813Z" transform="translate(-747.415 -458.235)"/>
  <path id="Trazado_257" data-name="Trazado 257" class="cls-2" d="M793.963,562.892q-2.862-.953-5.563-2.1a1.558,1.558,0,0,0-1.89,2.307,51.965,51.965,0,0,0,8.265,9.542,1.555,1.555,0,0,0,2.51-1.7c-.856-2.24-1.632-4.583-2.327-7.014A1.543,1.543,0,0,0,793.963,562.892Z" transform="translate(-749.179 -453.863)"/>
  <path id="Trazado_258" data-name="Trazado 258" class="cls-2" d="M794.221,519.312a77.983,77.983,0,0,1,2.942-9.218,1.558,1.558,0,0,0-2.508-1.719,51.857,51.857,0,0,0-9.81,12.388,1.558,1.558,0,0,0,2,2.19q3.076-1.413,6.392-2.566A1.542,1.542,0,0,0,794.221,519.312Z" transform="translate(-749.542 -465.713)"/>
  <path id="Trazado_259" data-name="Trazado 259" class="cls-2" d="M853.319,541.223c-8.233.008-18.039.018-28.143.024a1.558,1.558,0,0,0-1.559,1.556v22.925a1.566,1.566,0,0,0,1.62,1.565,120.357,120.357,0,0,0,25.931-3.809,1.565,1.565,0,0,0,1.122-1.166,110.942,110.942,0,0,0,2.587-19.469A1.556,1.556,0,0,0,853.319,541.223Z" transform="translate(-740.781 -458.24)"/>
  <path id="Trazado_260" data-name="Trazado 260" class="cls-2" d="M852.078,521.856a119.623,119.623,0,0,0-26.832-4.062,1.574,1.574,0,0,0-1.629,1.572v20.716a1.567,1.567,0,0,0,1.568,1.565c10.14-.006,19.979-.015,28.228-.024a1.564,1.564,0,0,0,1.562-1.6A103.932,103.932,0,0,0,853.2,523.07,1.571,1.571,0,0,0,852.078,521.856Z" transform="translate(-740.781 -463.512)"/>
</svg>
