<svg xmlns="http://www.w3.org/2000/svg" width="62" height="62" viewBox="0 0 62 62">
  <defs>
    <style>
      .cls-1 {
        fill: #3e3b8a;
      }

      .cls-2 {
        fill: #fff;
      }
    </style>
  </defs>
  <g id="Grupo_645" data-name="Grupo 645" transform="translate(-6317 1221.92)">
    <g id="Grupo_647" data-name="Grupo 647">
      <rect id="Rectángulo_342" data-name="Rectángulo 342" class="cls-1" width="62" height="62" rx="31" transform="translate(6317 -1221.92)"/>
    </g>
    <g id="Grupo_644" data-name="Grupo 644" transform="translate(6327.864 -1211.524)">
      <path id="Trazado_184" data-name="Trazado 184" class="cls-2" d="M1024.846,43.633a10.248,10.248,0,0,1,6.66,1.739,1.079,1.079,0,0,0,1.734-.757h0c.277-3.254,6.48-2.324,8.65-4.494s-3.1-7.748-6.2-8.058,1.358-11.348.059-11.253-3.78,3.459-3.78,5.652h0a.44.44,0,0,1-.866.115c-.459-1.709-1.1-3.435-1.926-4.122-1.861-1.55-2.171,3.409-1.551,4.8.364.818,1.154,2.968,1.745,4.606.455,1.259,1.041,5.571-.195,6.086a3.736,3.736,0,0,1-3.1-.62c-2.171-1.55-5.677-1-7.133-.93a12.03,12.03,0,0,0-11.307,9.3.44.44,0,0,1-.793.158c-.87-1.293-1.991-3.436-3.216-2.639-1.43.93-1.8,1.008-1.74,2.479.069,1.612.62,2.169,1.86,3.719a9.911,9.911,0,0,0,1.8,1.816.4.4,0,0,1,.1.115c.655,1.047,2.286,1.729,4.157,2.249a.986.986,0,0,0,1.166-.559A15.81,15.81,0,0,1,1024.846,43.633Z" transform="translate(-1001.879 -20.809)"/>
    </g>
    <path id="Trazado_310" data-name="Trazado 310" class="cls-2" d="M1055.224,100.1c-2.409,1.236-1.757.118-1.757.118s1-5.731-6.758-7.406c-7.549-1.631-14.24,3.444-15.813,8.489l-1.326.56a.454.454,0,0,0,.042.852,14.913,14.913,0,0,0,2.128.512,5.166,5.166,0,0,0,.663.7c.956.815.707,2.247,1.232,2.555s3.181.111,2.816-1.3a2.128,2.128,0,0,0-1.3-1.654,14.019,14.019,0,0,1,2.786.455c2.172.48,9.2-.659,9.538.18s2.843,1.876,4.366,1.529-.376-1.692-.122-2.271,1.257-.051,4.019-.164,3.438-.572,3.71-1.437S1057.633,98.86,1055.224,100.1Z" transform="translate(5308.021 -1276.892)"/>
  </g>
</svg>
