<svg id="Componente_74_1" data-name="Componente 74 – 1" xmlns="http://www.w3.org/2000/svg" width="160" height="160" viewBox="0 0 160 160">
  <defs>
    <style>
      .cls-1 {
        fill: #a093ee;
      }

      .cls-2 {
        fill: #fff;
      }
    </style>
  </defs>
  <rect id="Rectángulo_332" data-name="Rectángulo 332" class="cls-1" width="160" height="160" rx="80"/>
  <g id="Grupo_351" data-name="Grupo 351" transform="translate(28 27)">
    <path id="Trazado_184" data-name="Trazado 184" class="cls-2" d="M1061.074,79.633c8.218-.223,13.617,1.8,17.165,4.481a2.78,2.78,0,0,0,4.468-1.952h0c.715-8.387,16.7-5.991,22.294-11.582s-7.992-19.968-15.985-20.767,3.5-29.249.152-29-9.743,8.916-9.743,14.566h0a1.135,1.135,0,0,1-2.231.3c-1.183-4.4-2.838-8.853-4.963-10.623-4.8-3.994-5.595,8.786-4,12.381.937,2.108,2.974,7.649,4.5,11.871,1.172,3.245,2.684,14.358-.5,15.686-1.684.7-5.311.317-7.993-1.6-5.594-3.994-14.633-2.567-18.383-2.4a31.006,31.006,0,0,0-29.142,23.967,1.133,1.133,0,0,1-2.044.408c-2.243-3.333-5.133-8.856-8.29-6.8-3.685,2.4-4.647,2.6-4.484,6.39.177,4.154,1.6,5.591,4.795,9.585a25.546,25.546,0,0,0,4.635,4.681,1.027,1.027,0,0,1,.27.3c1.688,2.7,5.893,4.455,10.713,5.8a2.542,2.542,0,0,0,3.006-1.44C1030.665,91.63,1043.739,80.1,1061.074,79.633Z" transform="translate(-1001.879 -20.809)"/>
  </g>
  <path id="Trazado_185" data-name="Trazado 185" class="cls-2" d="M1096.128,112.083c-6.209,3.186-4.528.3-4.528.3s2.568-14.77-17.418-19.089c-19.456-4.2-36.7,8.876-40.756,21.878l-3.417,1.443a1.17,1.17,0,0,0,.108,2.2,38.443,38.443,0,0,0,5.486,1.32,13.34,13.34,0,0,0,1.71,1.8c2.463,2.1,1.821,5.792,3.176,6.585s8.2.285,7.258-3.344-3.344-4.263-3.344-4.263,1.582-.065,7.18,1.174,23.7-1.7,24.583.464,7.328,4.834,11.254,3.941-.97-4.36-.314-5.854,3.239-.132,10.359-.422,8.86-1.475,9.561-3.7S1102.337,108.9,1096.128,112.083Z" transform="translate(-976.939 4.424)"/>
</svg>
