<svg id="Componente_86_1" data-name="Componente 86 – 1" xmlns="http://www.w3.org/2000/svg" width="160" height="160" viewBox="0 0 160 160">
  <defs>
    <style>
      .cls-1 {
        fill: #3e3b8a;
      }

      .cls-2 {
        fill: #fff;
      }
    </style>
  </defs>
  <rect id="Rectángulo_326" data-name="Rectángulo 326" class="cls-1" width="160" height="160" rx="80"/>
  <g id="Grupo_570" data-name="Grupo 570" transform="translate(23 23)">
    <path id="Trazado_239" data-name="Trazado 239" class="cls-2" d="M331.571,106.963c-11.012,6.39-54.363,8.726-66.674,0,0,.083,0-.083,0,0-16.58,2.476-24,5.9-24,11.011,0,7.8,25.739,14.121,57.49,14.121s57.492-6.323,57.492-14.121C355.88,112.606,349.532,109.351,331.571,106.963Z" transform="translate(-240.898 -27.357)"/>
    <path id="Trazado_240" data-name="Trazado 240" class="cls-2" d="M271.914,115.679c13.094,3.383,39.829-.972,53.715,1.3,2.073.433,2.041-.735,1.867-1.827-2.774-17.448-5.4-38.732-1.39-37.031,6.724,2.851,18.038-2.852,18.2-4.8s-40.564-31.936-57.057-19.8c-12.45,9.16-19.973,36.2-22.635,60.032C270.783,115.315,269.087,114.948,271.914,115.679Z" transform="translate(-238.993 -50.636)"/>
  </g>
</svg>
