<svg id="Componente_79_1" data-name="Componente 79 – 1" xmlns="http://www.w3.org/2000/svg" width="160" height="160" viewBox="0 0 160 160">
  <defs>
    <style>
      .cls-1 {
        fill: #3e3b8a;
      }

      .cls-2 {
        fill: #fff;
      }
    </style>
  </defs>
  <rect id="Rectángulo_307" data-name="Rectángulo 307" class="cls-1" width="160" height="160" rx="80"/>
  <path id="Trazado_242" data-name="Trazado 242" class="cls-2" d="M1585.175,22.389H1519.3c-8.242,0-14.924,6.308-14.924,14.09s6.682,14.09,14.924,14.09a15.016,15.016,0,0,0,13.47-8.017h38.932a15.016,15.016,0,0,0,13.47,8.017c8.242,0,14.924-6.309,14.924-14.09S1593.418,22.389,1585.175,22.389Zm-66.35,20.653a6.757,6.757,0,0,1-6.943-6.555,6.954,6.954,0,0,1,13.885,0A6.756,6.756,0,0,1,1518.825,43.042Zm67.024,0a6.756,6.756,0,0,1-6.941-6.555,6.953,6.953,0,0,1,13.884,0A6.756,6.756,0,0,1,1585.849,43.042Z" transform="translate(-1472.379 6.611)"/>
  <path id="Trazado_241" data-name="Trazado 241" class="cls-2" d="M1593.714,110.76h-.278V109a5.418,5.418,0,0,0-5.562-5.227h-2.064V60.926h-1.549c-11.447-.518-14-7.1-14-7.1l-35.506-.07s-3.985,6.924-14.4,7.173h-.618a.1.1,0,0,0-.1.093v42.758h-2.064a5.419,5.419,0,0,0-5.562,5.227v1.756h-.278a3.379,3.379,0,0,0-3.469,3.26v7.056a3.38,3.38,0,0,0,3.469,3.261h81.98a3.38,3.38,0,0,0,3.469-3.261V114.02A3.379,3.379,0,0,0,1593.714,110.76Zm-28.2-36.736a6.385,6.385,0,0,1,6.573-6.177h0a6.384,6.384,0,0,1,6.573,6.177v26.884a2.381,2.381,0,0,1-2.451,2.3h-8.243a2.381,2.381,0,0,1-2.452-2.3Zm-19.365,0a6.385,6.385,0,0,1,6.573-6.177h0a6.385,6.385,0,0,1,6.573,6.177v26.908a2.356,2.356,0,0,1-2.426,2.28h-8.293a2.356,2.356,0,0,1-2.426-2.28Zm-19.366,0a6.384,6.384,0,0,1,6.573-6.177h0a6.385,6.385,0,0,1,6.573,6.177v26.86a2.406,2.406,0,0,1-2.477,2.328h-8.19a2.406,2.406,0,0,1-2.478-2.328Z" transform="translate(-1472.863 5.829)"/>
</svg>
