<svg id="Yo" xmlns="http://www.w3.org/2000/svg" width="60" height="60" viewBox="0 0 60 60">
  <defs>
    <style>
      .cls-1 {
        fill: none;
      }

      .cls-2 {
        fill: #e6772b;
      }

      .cls-3, .cls-4 {
        stroke: none;
      }

      .cls-4 {
        fill: #e6772b;
      }
    </style>
  </defs>
  <g id="Trazado_13" data-name="Trazado 13" class="cls-1">
    <path class="cls-3" d="M30,0A30,30,0,1,1,0,30,30,30,0,0,1,30,0Z"/>
    <path class="cls-4" d="M 29.99999809265137 4.999996185302734 C 26.62282180786133 4.999996185302734 23.34931182861328 5.660297393798828 20.27041244506836 6.962574005126953 C 17.29402160644531 8.221473693847656 14.61989974975586 10.02476119995117 12.32233428955078 12.32233428955078 C 10.02476119995117 14.61989974975586 8.221473693847656 17.29402160644531 6.962574005126953 20.27041244506836 C 5.660297393798828 23.34931182861328 4.999996185302734 26.62282180786133 4.999996185302734 29.99999809265137 C 4.999996185302734 33.37717437744141 5.660297393798828 36.65068817138672 6.962574005126953 39.72958374023438 C 8.221473693847656 42.70597076416016 10.02476119995117 45.38009643554688 12.32233428955078 47.67766189575195 C 14.61989974975586 49.97523498535156 17.29402160644531 51.77852249145508 20.27041244506836 53.03742218017578 C 23.34931182861328 54.33969879150391 26.62282180786133 55 29.99999809265137 55 C 33.37717437744141 55 36.65068817138672 54.33969879150391 39.72958374023438 53.03742218017578 C 42.70597076416016 51.77852249145508 45.38009643554688 49.97523498535156 47.67766189575195 47.67766189575195 C 49.97523498535156 45.38009643554688 51.77852249145508 42.70597076416016 53.03742218017578 39.72958374023438 C 54.33969879150391 36.65068817138672 55 33.37717437744141 55 29.99999809265137 C 55 26.62282180786133 54.33969879150391 23.34931182861328 53.03742218017578 20.27041244506836 C 51.77852249145508 17.29402160644531 49.97523498535156 14.61989974975586 47.67766189575195 12.32233428955078 C 45.38009643554688 10.02476119995117 42.70597076416016 8.221473693847656 39.72958374023438 6.962574005126953 C 36.65068817138672 5.660297393798828 33.37717437744141 4.999996185302734 29.99999809265137 4.999996185302734 M 29.99999809265137 -3.814697265625e-06 C 46.56853485107422 -3.814697265625e-06 60 13.43146133422852 60 29.99999809265137 C 60 46.56853485107422 46.56853485107422 60 29.99999809265137 60 C 13.43146133422852 60 -3.814697265625e-06 46.56853485107422 -3.814697265625e-06 29.99999809265137 C -3.814697265625e-06 13.43146133422852 13.43146133422852 -3.814697265625e-06 29.99999809265137 -3.814697265625e-06 Z"/>
  </g>
  <g id="Trazado_14" data-name="Trazado 14" class="cls-2" transform="translate(10 10)">
    <path class="cls-3" d="M 19.93819808959961 37.76289749145508 C 15.14565849304199 37.76289749145508 10.64026832580566 35.90218734741211 7.251957893371582 32.52352905273438 C 3.865178108215332 29.14638900756836 1.999998092651367 24.65667915344238 1.999998092651367 19.88144874572754 C 1.999998092651367 15.1062183380127 3.865178108215332 10.61650848388672 7.251957893371582 7.239368915557861 C 10.64026832580566 3.860708713531494 15.14565849304199 1.999998688697815 19.93819808959961 1.999998688697815 C 24.73073768615723 1.999998688697815 29.23612785339355 3.860708713531494 32.62443923950195 7.239368915557861 C 36.0112190246582 10.61650848388672 37.87639999389648 15.1062183380127 37.87639999389648 19.88144874572754 C 37.87639999389648 24.65667915344238 36.0112190246582 29.14638900756836 32.62443923950195 32.52352905273438 C 29.23612785339355 35.90218734741211 24.73073768615723 37.76289749145508 19.93819808959961 37.76289749145508 Z"/>
    <path class="cls-4" d="M 19.93819808959961 4 C 15.67879867553711 4 11.6749382019043 5.653388977050781 8.664157867431641 8.655599594116211 C 5.656429290771484 11.65475845336914 3.999996185302734 15.64151954650879 3.999996185302734 19.88144874572754 C 3.999996185302734 24.12137985229492 5.656429290771484 28.10813903808594 8.664157867431641 31.1072998046875 C 11.6749382019043 34.1095085144043 15.67879867553711 35.76289749145508 19.93819808959961 35.76289749145508 C 24.19759750366211 35.76289749145508 28.20145797729492 34.1095085144043 31.21223831176758 31.1072998046875 C 34.21996688842773 28.10813903808594 35.87639617919922 24.12137985229492 35.87639617919922 19.88144874572754 C 35.87639617919922 15.64151954650879 34.21996688842773 11.65475845336914 31.21223831176758 8.655599594116211 C 28.20145797729492 5.653388977050781 24.19759750366211 4 19.93819808959961 4 M 19.93819808959961 0 C 30.94975852966309 0 39.87639999389648 8.901227951049805 39.87639999389648 19.88144874572754 C 39.87639999389648 30.86166763305664 30.94975852966309 39.76289749145508 19.93819808959961 39.76289749145508 C 8.926637649536133 39.76289749145508 -3.814697265625e-06 30.86166763305664 -3.814697265625e-06 19.88144874572754 C -3.814697265625e-06 8.901227951049805 8.926637649536133 0 19.93819808959961 0 Z"/>
  </g>
</svg>
