<svg id="ubiocacion" xmlns="http://www.w3.org/2000/svg" viewBox="0 0 70 70">
  <defs>
    <style>
      .cls-1 {
        fill: none;
      }

      .cls-2 {
        fill: #6f65bb;
      }
    </style>
  </defs>
  <path id="Trazado_232" data-name="Trazado 232" class="cls-1" d="M0,0H70V70H0Z"/>
  <path id="Trazado_233" data-name="Trazado 233" class="cls-2" d="M31.728,17.922,44.777,47.483,34.2,43.146l-.57-.235a5,5,0,0,0-3.8,0l-.57.235L18.679,47.483,31.728,17.922M29.63,7.739,9.433,53.525a2,2,0,0,0,.5,2.29h0a2.394,2.394,0,0,0,2.518.436l18.365-7.543a2.426,2.426,0,0,1,1.832,0l18.365,7.543a2.394,2.394,0,0,0,2.518-.436h0a2,2,0,0,0,.5-2.29L33.825,7.739A2.337,2.337,0,0,0,29.63,7.739Z" transform="translate(3.272 3.568)"/>
</svg>
