<svg id="Botón_bilioteca" data-name="Botón bilioteca" xmlns="http://www.w3.org/2000/svg" width="96" height="96" viewBox="0 0 96 96">
  <defs>
    <style>
      .cls-1 {
        fill: #6f65bb;
        opacity: 0.96;
      }

      .cls-2 {
        fill: #fff;
      }
    </style>
  </defs>
  <circle id="Elipse_17" data-name="Elipse 17" class="cls-1" cx="48" cy="48" r="48"/>
  <g id="Grupo_152" data-name="Grupo 152" transform="translate(-287.941 -1064.486)">
    <g id="Grupo_30" data-name="Grupo 30" transform="translate(304.941 1085.486)">
      <path id="Trazado_6" data-name="Trazado 6" class="cls-2" d="M191.542,609.384c.223-.208.342-.315.456-.426a22.433,22.433,0,0,1,6.119-4.206A30.7,30.7,0,0,1,211.271,602a2.6,2.6,0,0,0,2.656-2.611c-.046-11.043-.026-22.086-.026-33.129a2.3,2.3,0,0,0-2.661-2.529,59.159,59.159,0,0,0-6.191.709,19.716,19.716,0,0,0-12.15,7.036,5.707,5.707,0,0,0-1.385,3.789c.069,7.975.03,15.949.028,23.924Zm-3.447-.212c0-.013.009-.093.009-.173q0-17.362-.012-34.722a2.914,2.914,0,0,0-.361-1.332,11.218,11.218,0,0,0-1.152-1.651,19.946,19.946,0,0,0-12.522-6.974c-1.859-.333-3.769-.383-5.654-.569a2.283,2.283,0,0,0-2.652,2.394V599.58a2.353,2.353,0,0,0,2.264,2.4c2.192.173,4.394.3,6.565.618a23.167,23.167,0,0,1,9.254,3.423C185.315,606.977,186.678,608.116,188.1,609.172Zm29.279-37.633v.7q0,3.955,0,7.911,0,4.6-.015,9.2c-.005,3.619.015,7.236-.027,10.854a5.465,5.465,0,0,1-3.72,4.826,16.671,16.671,0,0,1-3.432.456,27.993,27.993,0,0,0-10.511,2.408,17.108,17.108,0,0,0-4.906,3.3,4.022,4.022,0,0,0,.406-.043,41.1,41.1,0,0,1,7.192-.972,52.6,52.6,0,0,1,8.928.3c2.3.254,4.579.717,6.852,1.16,1.772.345,3.121-.517,3.129-2.169.02-4.825.012-9.65.014-14.474q0-6.44,0-12.879c0-2.76.014-5.52,0-8.28a2.234,2.234,0,0,0-1.889-2.284C218.745,571.494,218.091,571.539,217.374,571.539Zm-55.075-.012c-.581,0-1.089,0-1.594,0a2.227,2.227,0,0,0-2.334,2.291c-.012.7.011,1.39.009,2.085q0,6.749-.009,13.5,0,6.5,0,13.006c0,2.372-.009,4.744.02,7.116a2.181,2.181,0,0,0,2.64,2.158c1.22-.212,2.427-.513,3.654-.675,2.322-.306,4.649-.628,6.985-.779a59.581,59.581,0,0,1,6-.008c1.444.054,2.886.25,4.321.438.939.122,1.865.344,2.84.527a18.215,18.215,0,0,0-5.413-3.571,31.348,31.348,0,0,0-11.5-2.2,5.659,5.659,0,0,1-5.6-5.558c-.046-3.31-.034-6.623-.034-9.935q0-8.25.019-16.5C162.3,572.814,162.3,572.205,162.3,571.526Z" transform="translate(-158.366 -563.718)"/>
      <path id="Trazado_7" data-name="Trazado 7" class="cls-2" d="M182.907,609.377V599.183c0-7.973.041-15.947-.028-23.92a5.7,5.7,0,0,1,1.389-3.789,19.788,19.788,0,0,1,12.186-7.035,59.517,59.517,0,0,1,6.209-.709,2.307,2.307,0,0,1,2.669,2.528c0,11.041-.02,22.083.026,33.124a2.608,2.608,0,0,1-2.664,2.611,30.876,30.876,0,0,0-13.193,2.753,22.5,22.5,0,0,0-6.137,4.2C183.25,609.063,183.13,609.169,182.907,609.377Z" transform="translate(-149.818 -563.718)"/>
      <path id="Trazado_8" data-name="Trazado 8" class="cls-2" d="M186.237,609.16c-1.421-1.056-2.789-2.194-4.274-3.148a23.278,23.278,0,0,0-9.281-3.422c-2.178-.319-4.386-.445-6.585-.618a2.355,2.355,0,0,1-2.27-2.4v-33.43a2.287,2.287,0,0,1,2.66-2.393c1.891.187,3.806.237,5.671.569a20.021,20.021,0,0,1,12.559,6.973,11.224,11.224,0,0,1,1.156,1.651,2.907,2.907,0,0,1,.362,1.332q.028,17.359.012,34.716C186.246,609.066,186.237,609.146,186.237,609.16Z" transform="translate(-156.421 -563.713)"/>
      <path id="Trazado_9" data-name="Trazado 9" class="cls-2" d="M207.96,569.505c.719,0,1.375-.045,2.024.011a2.24,2.24,0,0,1,1.895,2.291c.009,2.768,0,5.536,0,8.3q0,6.457,0,12.917c0,4.838.007,9.677-.014,14.516-.008,1.657-1.362,2.521-3.138,2.176-2.28-.445-4.567-.909-6.872-1.164a52.768,52.768,0,0,0-8.954-.3,41.233,41.233,0,0,0-7.213.975,4.043,4.043,0,0,1-.407.043,17.156,17.156,0,0,1,4.921-3.312,28.071,28.071,0,0,1,10.542-2.416,16.73,16.73,0,0,0,3.442-.457,5.481,5.481,0,0,0,3.731-4.84c.042-3.628.022-7.256.027-10.886q.008-4.612.015-9.224,0-3.967,0-7.934Z" transform="translate(-148.964 -561.803)"/>
      <path id="Trazado_10" data-name="Trazado 10" class="cls-2" d="M162.31,569.492c0,.681,0,1.291,0,1.9q-.01,8.272-.019,16.547c0,3.322-.012,6.644.034,9.965a5.675,5.675,0,0,0,5.62,5.574,31.44,31.44,0,0,1,11.535,2.2,18.266,18.266,0,0,1,5.429,3.582c-.978-.184-1.907-.407-2.848-.529-1.439-.189-2.885-.385-4.333-.439a59.77,59.77,0,0,0-6.021.008c-2.342.152-4.676.475-7.005.781-1.23.163-2.441.464-3.665.677a2.188,2.188,0,0,1-2.647-2.165c-.03-2.379-.019-4.758-.02-7.137q0-6.523,0-13.045,0-6.766.009-13.536c0-.7-.022-1.394-.009-2.091a2.233,2.233,0,0,1,2.341-2.3C161.218,569.491,161.727,569.492,162.31,569.492Z" transform="translate(-158.366 -561.802)"/>
    </g>
  </g>
</svg>
