<svg id="boto_geolocalitzacio_desactivat_no_sombra" data-name="boto geolocalitzacio desactivat no sombra" xmlns="http://www.w3.org/2000/svg" width="73" height="73" viewBox="0 0 73 73">
  <defs>
    <style>
      .cls-1 {
        fill: #fff;
      }

      .cls-2 {
        fill: none;
      }

      .cls-3 {
        fill: #e6772b;
      }
    </style>
  </defs>
  <g id="Componente_35_1" data-name="Componente 35 – 1">
    <circle id="Elipse_136" data-name="Elipse 136" class="cls-1" cx="36.5" cy="36.5" r="36.5"/>
    <g id="Grupo_425" data-name="Grupo 425" transform="translate(8 8)">
      <path id="Trazado_234" data-name="Trazado 234" class="cls-2" d="M0,0H56.415V56.415H0Z"/>
      <path id="Trazado_235" data-name="Trazado 235" class="cls-1" d="M26.485,4.012A16.443,16.443,0,0,0,10.03,20.466c0,12.341,16.455,30.559,16.455,30.559S42.939,32.807,42.939,20.466A16.442,16.442,0,0,0,26.485,4.012ZM14.731,20.466a11.753,11.753,0,0,1,23.507,0c0,6.771-6.771,16.9-11.753,23.225C21.6,37.415,14.731,27.166,14.731,20.466Z" transform="translate(1.723 0.689)"/>
      <circle id="Elipse_137" data-name="Elipse 137" class="cls-1" cx="5.877" cy="5.877" r="5.877" transform="translate(22.331 15.279)"/>
    </g>
  </g>
  <g id="Grupo_426" data-name="Grupo 426" transform="translate(7.533 8.175)">
    <path id="Trazado_236" data-name="Trazado 236" class="cls-2" d="M0-.175H56.42v56.42H0Z" transform="translate(0 0)"/>
    <path id="Trazado_237" data-name="Trazado 237" class="cls-3" d="M28.055,8.532a11.866,11.866,0,0,1,12.015,11.7,20.674,20.674,0,0,1-2.4,8.472l3.58,3.487c2.114-4.1,3.628-8.285,3.628-11.959A16.593,16.593,0,0,0,28.055,3.852,17.029,17.029,0,0,0,16.642,8.2l3.436,3.347A12.105,12.105,0,0,1,28.055,8.532Zm0,5.852a6,6,0,0,0-3.749,1.31l8.41,8.192a5.665,5.665,0,0,0,1.346-3.651A5.933,5.933,0,0,0,28.055,14.384ZM7.415,5.864l-3.388,3.3,7.641,7.442a16.521,16.521,0,0,0-.432,3.628c0,12.287,16.82,30.426,16.82,30.426A107.584,107.584,0,0,0,36.177,40.48l8.05,7.84,3.388-3.3Zm20.64,37.494c-4.83-6.039-11.534-15.775-11.966-22.445l16.628,16.2C31.155,39.4,29.521,41.533,28.055,43.358Z" transform="translate(0.779 0.779)"/>
  </g>
</svg>
